<svg preserveAspectRatio="none" overflow="visible" style="display: block;" width="16" height="16" viewBox="0 0 16 16" fill="none" xmlns="http://www.w3.org/2000/svg">
<g id="account">
<g id="Vector">
<path d="M11.335 13.3333C11.335 12.4488 10.9838 11.6004 10.3584 10.9749C9.73296 10.3495 8.8845 9.99837 8 9.99837C7.1155 9.99837 6.26704 10.3495 5.6416 10.9749C5.01617 11.6004 4.66504 12.4488 4.66504 13.3333C4.66504 13.7006 4.36727 13.9984 4 13.9984C3.63273 13.9984 3.33496 13.7006 3.33496 13.3333C3.33496 12.0961 3.82631 10.9094 4.70117 10.0345C5.57603 9.15965 6.76277 8.6683 8 8.6683C9.23724 8.6683 10.424 9.15965 11.2988 10.0345C12.1737 10.9094 12.665 12.0961 12.665 13.3333C12.665 13.7006 12.3673 13.9984 12 13.9984C11.6327 13.9984 11.335 13.7006 11.335 13.3333Z" fill="#2D2D2D"/>
<path d="M10.0013 6.66699C10.0013 5.56161 9.10567 4.66522 8.00033 4.66504C6.89484 4.66504 5.99837 5.5615 5.99837 6.66699C5.99855 7.77233 6.89462 8.6683 8 8.6683C9.10523 8.66812 10.0011 7.77222 10.0013 6.66699ZM11.3314 6.66699C11.3312 8.50676 9.83977 9.9982 8 9.99837C6.16008 9.99837 4.66847 8.50687 4.66829 6.66699C4.66829 4.82696 6.1603 3.33496 8.00033 3.33496C9.8402 3.33514 11.3314 4.82707 11.3314 6.66699Z" fill="#2D2D2D"/>
<path d="M14.0013 8.00033C14.0013 4.68581 11.3148 1.99855 8.00033 1.99837C4.6857 1.99837 1.99837 4.6857 1.99837 8.00033C1.99855 11.3148 4.68581 14.0013 8.00033 14.0013C11.3147 14.0011 14.0011 11.3147 14.0013 8.00033ZM15.3314 8.00033C15.3312 12.0492 12.0492 15.3312 8.00033 15.3314C3.95127 15.3314 0.66847 12.0493 0.668294 8.00033C0.668294 3.95116 3.95116 0.668294 8.00033 0.668294C12.0493 0.66847 15.3314 3.95127 15.3314 8.00033Z" fill="#2D2D2D"/>
</g>
</g>
</svg>
